<svg xmlns="http://www.w3.org/2000/svg" xmlns:xlink="http://www.w3.org/1999/xlink" viewBox="0,0,256,256" width="100px" height="100px" fill-rule="nonzero"><g fill="none" fill-rule="nonzero" stroke="none" stroke-width="1" stroke-linecap="butt" stroke-linejoin="miter" stroke-miterlimit="10" stroke-dasharray="" stroke-dashoffset="0" font-family="none" font-weight="none" font-size="none" text-anchor="none" style="mix-blend-mode: normal"><g transform="scale(2.56,2.56)"><path d="M83,30.65v39c0,7.17 -5.83,13 -13,13h-39c-7.17,0 -13,-5.83 -13,-13v-39c0,-7.16 5.83,-13 13,-13h39c7.17,0 13,5.84 13,13z" fill="#cc5de8"></path><path d="M53.432,50.987c-3.638,0 -6.596,3.364 -6.596,7.501c0,4.137 2.959,7.501 6.596,7.501c1.711,0 3.265,-0.751 4.437,-1.969v0.351c0,0.746 0.604,1.351 1.351,1.351h1.351v-14.472h-1.351c-0.746,0 -1.351,0.604 -1.351,1.351v0.351c-1.171,-1.216 -2.727,-1.965 -4.437,-1.965zM60.832,51.25l4.562,6.183c0.501,0.681 0.501,1.609 0,2.292l-4.354,5.9h2.383c0.614,0 1.187,-0.293 1.551,-0.784l2.478,-3.355c0.231,-0.315 0.701,-0.315 0.932,0l2.475,3.355c0.364,0.493 0.942,0.784 1.554,0.784h2.38l-4.352,-5.9c-0.501,-0.681 -0.503,-1.608 -0.003,-2.292l4.562,-6.183h-2.38c-0.614,0 -1.19,0.293 -1.554,0.784l-2.685,3.636c-0.231,0.315 -0.701,0.315 -0.932,0l-2.685,-3.636c-0.364,-0.493 -0.939,-0.784 -1.551,-0.784zM40.749,51.35c-0.414,-0.013 -0.84,0.017 -1.273,0.102c-1.205,0.233 -2.219,0.899 -2.971,1.794c-1.21,-1.401 -3.107,-2.197 -5.169,-1.794c-2.572,0.5 -4.336,2.912 -4.336,5.533v7.384c0,0.746 0.604,1.351 1.351,1.351h1.351v-8.954c0,-1.498 1.218,-2.719 2.716,-2.719c1.498,0 2.719,1.22 2.719,2.719v7.603c0,0.746 0.604,1.351 1.351,1.351h1.348v-8.954c0,-1.498 1.22,-2.719 2.719,-2.719c1.498,0 2.719,1.22 2.719,2.719v7.603c0,0.746 0.604,1.351 1.351,1.351h1.351v-8.954c0.005,-2.921 -2.325,-5.315 -5.227,-5.416zM53.432,53.687c2.147,0 3.896,2.15 3.896,4.8c0,2.648 -1.748,4.8 -3.896,4.8c-2.148,0 -3.894,-2.15 -3.894,-4.8c0.002,-2.648 1.747,-4.8 3.894,-4.8z" fill="#e3e2e3"></path><path d="M42.952,50.309h-4.421v-6.028h-2.813v6.028h-4.425l0.005,-15.673h4.42v5.626h2.813v-5.626h4.421z" fill="#e3e2e3"></path><path d="M44.559,42.272v-7.635h6.832c2.219,0 4.019,1.799 4.019,4.019v0.402c0,1.638 -1.229,3.016 -2.813,3.215c1.611,0.365 2.813,1.895 2.813,3.617v0.402c0,2.219 -1.799,4.019 -4.019,4.019h-6.832zM51.793,39.258v0c0,-0.777 -0.63,-1.407 -1.407,-1.407h-2.21v2.813h2.21c0.777,0 1.407,-0.629 1.407,-1.406zM48.176,47.094h2.21c0.777,0 1.407,-0.63 1.407,-1.407v0c0,-0.777 -0.63,-1.407 -1.407,-1.407h-2.21z" fill="#e3e2e3"></path><path d="M70.68,42.473c0,4.328 -3.508,7.836 -7.836,7.836c-4.328,0 -7.836,-3.508 -7.836,-7.836c0,-4.328 3.508,-7.836 7.836,-7.836c4.328,0 7.836,3.508 7.836,7.836zM62.844,38.253c-2.33,0 -4.22,1.889 -4.22,4.22c0,2.331 1.889,4.22 4.22,4.22c2.33,0 4.22,-1.889 4.22,-4.22c0,-2.331 -1.89,-4.22 -4.22,-4.22z" fill="#e3e2e3"></path><path d="M70,17.654h-39c-7.168,0 -13,5.832 -13,13v39c0,7.168 5.832,13 13,13h39c7.168,0 13,-5.832 13,-13v-39c0,-7.169 -5.832,-13 -13,-13zM81,69.654c0,6.065 -4.935,11 -11,11h-39c-6.065,0 -11,-4.935 -11,-11v-39c0,-6.065 4.935,-11 11,-11h39c6.065,0 11,4.935 11,11z" fill="#1f212b"></path><path d="M77,38.154v2c0,0.276 0.224,0.5 0.5,0.5c0.276,0 0.5,-0.224 0.5,-0.5v-2c0,-0.276 -0.224,-0.5 -0.5,-0.5c-0.276,0 -0.5,0.223 -0.5,0.5z" fill="#1f212b"></path><path d="M77.5,47.654c-0.276,0 -0.5,0.224 -0.5,0.5v18.662c0,5.424 -4.414,9.838 -9.838,9.838h-33.324c-5.424,0 -9.838,-4.414 -9.838,-9.838v-33.326c0,-5.424 4.414,-9.838 9.838,-9.838h33.662c0.276,0 0.5,-0.224 0.5,-0.5c0,-0.276 -0.224,-0.5 -0.5,-0.5h-33.662c-5.976,0.001 -10.838,4.863 -10.838,10.838v33.326c0,5.976 4.862,10.836 10.838,10.836h33.324c5.976,0.001 10.838,-4.86 10.838,-10.836v-18.662c0,-0.277 -0.224,-0.5 -0.5,-0.5z" fill="#1f212b"></path><path d="M77.5,41.654c-0.276,0 -0.5,0.224 -0.5,0.5v4c0,0.276 0.224,0.5 0.5,0.5c0.276,0 0.5,-0.224 0.5,-0.5v-4c0,-0.277 -0.224,-0.5 -0.5,-0.5z" fill="#1f212b"></path><circle cx="62.844" cy="42.473" r="4.473" fill="#e3e2e3"></circle><path d="M53.433,66.489c-3.427,0 -6.294,-2.753 -6.953,-6.4v5.632c0,0.276 -0.224,0.5 -0.5,0.5h-1.352c-1.021,0 -1.852,-0.83 -1.852,-1.851v-7.603c0,-1.224 -0.995,-2.22 -2.219,-2.22c-1.224,0 -2.22,0.996 -2.22,2.22v8.953c0,0.276 -0.224,0.5 -0.5,0.5h-1.347c-1.021,0 -1.852,-0.83 -1.852,-1.851v-7.603c0,-1.224 -0.996,-2.22 -2.22,-2.22c-1.222,0 -2.216,0.996 -2.216,2.22v8.953c0,0.276 -0.224,0.5 -0.5,0.5h-1.352c-1.021,0 -1.852,-0.83 -1.852,-1.851v-7.385c0,-2.956 1.993,-5.49 4.74,-6.025c1.935,-0.371 3.861,0.2 5.259,1.553c0.812,-0.81 1.799,-1.343 2.882,-1.553c0.446,-0.087 0.914,-0.126 1.384,-0.11c0,0 0.001,0 0.002,0c3.206,0.112 5.715,2.712 5.713,5.918v0.12c0.659,-3.647 3.526,-6.4 6.953,-6.4c1.461,0 2.873,0.509 4.06,1.449c0.269,-0.693 0.941,-1.187 1.729,-1.187h1.352c0.045,0 0.089,0.006 0.13,0.018c0.042,-0.012 0.086,-0.018 0.13,-0.018h2.382c0.767,0 1.496,0.369 1.953,0.987l2.685,3.637c0.001,0.002 0.079,0 0.112,0c0.009,0 0.015,0 0.015,0l2.685,-3.637c0.459,-0.618 1.19,-0.987 1.957,-0.987h2.379c0.188,0 0.361,0.106 0.446,0.274c0.085,0.169 0.068,0.371 -0.044,0.522l-4.562,6.183c-0.371,0.508 -0.37,1.191 0.003,1.699l4.353,5.899c0.112,0.152 0.129,0.354 0.044,0.522c-0.085,0.168 -0.258,0.274 -0.446,0.274h-2.38c-0.768,0 -1.499,-0.369 -1.957,-0.986l-2.475,-3.356h-0.128l-2.478,3.355c-0.46,0.619 -1.19,0.987 -1.954,0.987h-2.382c-0.05,0 -0.098,-0.008 -0.145,-0.021c-0.087,0.074 -0.2,0.119 -0.323,0.119h-1.352c-0.786,0 -1.46,-0.492 -1.728,-1.186c-1.186,0.946 -2.598,1.456 -4.059,1.456zM53.433,51.487c-3.361,0 -6.096,3.141 -6.096,7.001c0,3.86 2.734,7.001 6.096,7.001c1.502,0 2.949,-0.645 4.076,-1.815c0.142,-0.146 0.356,-0.194 0.547,-0.117c0.189,0.076 0.313,0.26 0.313,0.464v0.351c0,0.47 0.382,0.852 0.852,0.852h0.852v-13.474h-0.852c-0.47,0 -0.852,0.382 -0.852,0.852v0.352c0,0.204 -0.124,0.388 -0.313,0.464c-0.189,0.076 -0.404,0.029 -0.547,-0.117c-1.126,-1.17 -2.573,-1.814 -4.076,-1.814zM40.558,53.548c1.774,0 3.219,1.444 3.219,3.22v7.603c0,0.469 0.382,0.851 0.852,0.851h0.852v-8.453c0.002,-2.665 -2.083,-4.825 -4.747,-4.918c-0.396,-0.014 -0.786,0.019 -1.16,0.092c-1.031,0.2 -1.959,0.762 -2.685,1.625c-0.095,0.112 -0.233,0.178 -0.38,0.179c-0.001,0 -0.002,0 -0.003,0c-0.146,0 -0.283,-0.063 -0.378,-0.173c-1.18,-1.364 -2.928,-1.975 -4.695,-1.63c-2.278,0.443 -3.932,2.564 -3.932,5.043v7.385c0,0.469 0.382,0.851 0.852,0.851h0.852v-8.453c0,-1.775 1.442,-3.22 3.216,-3.22c1.775,0 3.22,1.444 3.22,3.22v7.603c0,0.469 0.382,0.851 0.852,0.851h0.848v-8.453c-0.003,-1.779 1.441,-3.223 3.217,-3.223zM67.919,60.749c0.347,0 0.663,0.161 0.868,0.439l2.475,3.355c0.27,0.363 0.7,0.581 1.152,0.581h1.39l-3.765,-5.104c-0.634,-0.861 -0.636,-2.02 -0.004,-2.884l3.975,-5.388h-1.39c-0.452,0 -0.883,0.218 -1.153,0.582l-2.684,3.636c-0.41,0.557 -1.326,0.558 -1.736,-0.001l-2.685,-3.636c-0.269,-0.363 -0.698,-0.581 -1.148,-0.581h-1.392l3.974,5.386c0.635,0.862 0.635,2.021 0.001,2.885l-3.767,5.104h1.393c0.449,0 0.879,-0.218 1.15,-0.582l2.477,-3.354c0.205,-0.277 0.521,-0.438 0.869,-0.438zM61.072,52.418v12.321l3.919,-5.312c0.373,-0.508 0.373,-1.191 0,-1.699zM53.433,63.786c-2.423,0 -4.395,-2.378 -4.395,-5.3c0.002,-2.923 1.974,-5.3 4.395,-5.3c2.424,0 4.396,2.378 4.396,5.3c0,2.922 -1.973,5.3 -4.396,5.3zM53.433,54.187c-1.87,0 -3.393,1.929 -3.395,4.3c0,2.371 1.522,4.3 3.395,4.3c1.873,0 3.396,-1.929 3.396,-4.3c0,-2.371 -1.524,-4.3 -3.396,-4.3z" fill="#1f212b"></path><g fill="#1f212b"><path d="M42.952,50.809h-4.421c-0.276,0 -0.5,-0.224 -0.5,-0.5v-5.527h-1.812v5.527c0,0.276 -0.224,0.5 -0.5,0.5h-4.426c-0.133,0 -0.26,-0.053 -0.354,-0.146c-0.094,-0.093 -0.146,-0.221 -0.146,-0.354l0.005,-15.672c0,-0.276 0.224,-0.5 0.5,-0.5h4.421c0.276,0 0.5,0.224 0.5,0.5v5.126h1.812v-5.126c0,-0.276 0.224,-0.5 0.5,-0.5h4.421c0.276,0 0.5,0.224 0.5,0.5v15.672c0,0.276 -0.223,0.5 -0.5,0.5zM39.031,49.809h3.421v-14.672h-3.421v5.126c0,0.276 -0.224,0.5 -0.5,0.5h-2.812c-0.276,0 -0.5,-0.224 -0.5,-0.5v-5.126h-3.421l-0.005,14.672h3.426v-5.527c0,-0.276 0.224,-0.5 0.5,-0.5h2.812c0.276,0 0.5,0.224 0.5,0.5z"></path></g><g fill="#1f212b"><path d="M51.391,50.809h-6.831c-0.276,0 -0.5,-0.224 -0.5,-0.5v-15.672c0,-0.276 0.224,-0.5 0.5,-0.5h6.831c2.491,0 4.519,2.027 4.519,4.519v0.401c0,1.394 -0.766,2.63 -1.916,3.272c1.16,0.756 1.916,2.093 1.916,3.56v0.401c-0.001,2.491 -2.028,4.519 -4.519,4.519zM45.06,49.809h6.331c1.94,0 3.519,-1.578 3.519,-3.519v-0.401c0,-1.471 -1.042,-2.816 -2.423,-3.13c-0.237,-0.054 -0.401,-0.27 -0.389,-0.512c0.012,-0.242 0.195,-0.441 0.437,-0.472c1.354,-0.17 2.375,-1.339 2.375,-2.719v-0.401c0,-1.94 -1.578,-3.519 -3.519,-3.519h-6.331zM50.386,47.594h-2.21c-0.276,0 -0.5,-0.224 -0.5,-0.5v-2.812c0,-0.276 0.224,-0.5 0.5,-0.5h2.21c1.052,0 1.907,0.855 1.907,1.906c0,1.051 -0.855,1.906 -1.907,1.906zM48.676,46.594h1.71c0.5,0 0.907,-0.406 0.907,-0.906c0,-0.5 -0.407,-0.906 -0.907,-0.906h-1.71zM50.386,41.164h-2.21c-0.276,0 -0.5,-0.224 -0.5,-0.5v-2.812c0,-0.276 0.224,-0.5 0.5,-0.5h2.21c1.052,0 1.907,0.855 1.907,1.906c0,1.051 -0.855,1.906 -1.907,1.906zM48.676,40.164h1.71c0.5,0 0.907,-0.406 0.907,-0.906c0,-0.5 -0.407,-0.906 -0.907,-0.906h-1.71z"></path></g><g fill="#1f212b"><path d="M62.844,50.809c-4.597,0 -8.336,-3.739 -8.336,-8.336c0,-4.597 3.739,-8.336 8.336,-8.336c4.597,0 8.336,3.739 8.336,8.336c0,4.597 -3.74,8.336 -8.336,8.336zM62.844,35.137c-4.045,0 -7.336,3.291 -7.336,7.336c0,4.045 3.291,7.336 7.336,7.336c4.045,0 7.336,-3.291 7.336,-7.336c0,-4.045 -3.291,-7.336 -7.336,-7.336zM62.844,47.192c-2.603,0 -4.72,-2.117 -4.72,-4.72c0,-2.603 2.117,-4.72 4.72,-4.72c2.603,0 4.72,2.117 4.72,4.72c0,2.603 -2.118,4.72 -4.72,4.72zM62.844,38.753c-2.051,0 -3.72,1.669 -3.72,3.72c0,2.051 1.669,3.72 3.72,3.72c2.051,0 3.72,-1.669 3.72,-3.72c0,-2.051 -1.669,-3.72 -3.72,-3.72z"></path></g></g></g></svg>